<svg width="188.079224" height="60.000000" viewBox="0 0 188.079 60" fill="none" xmlns="http://www.w3.org/2000/svg" xmlns:xlink="http://www.w3.org/1999/xlink">
	<desc>
			Created with Pixso.
	</desc>
	<defs/>
	<path id="HOTELS" d="M84.27 45.22L84.27 51.83Q84.27 52.28 84.25 52.53Q84.23 52.79 84.2 52.98Q84.16 53.17 84.07 53.25Q84.04 53.27 84.02 53.29Q83.94 53.34 83.85 53.37Q83.73 53.42 83.51 53.44L82.83 53.51Q82.75 53.58 82.75 53.78Q82.75 53.97 82.83 54.04Q84.4 54 85.38 54Q86.32 54 87.78 54.04Q87.86 53.97 87.86 53.78Q87.86 53.58 87.78 53.51L87.19 53.44Q86.82 53.39 86.68 53.28Q86.53 53.17 86.48 52.86Q86.42 52.56 86.42 51.83L86.42 45.22Q86.42 44.93 86.48 44.86Q86.55 44.79 86.82 44.79L87.72 44.79Q88 44.79 88.21 44.84Q88.42 44.89 88.58 45.01Q88.74 45.13 88.84 45.25Q88.94 45.37 89.03 45.6Q89.13 45.83 89.18 45.99Q89.23 46.15 89.31 46.45L89.31 46.45Q89.36 46.54 89.59 46.52Q89.81 46.5 89.87 46.41Q89.84 45.77 89.91 44.99Q89.98 44.21 90.09 43.82Q90.08 43.8 90.06 43.78Q89.99 43.72 89.87 43.72Q89.79 43.72 89.73 43.74Q89.7 43.75 89.68 43.76Q89.63 43.88 89.54 43.95Q89.46 44.02 89.34 44.04Q89.1 44.09 88.32 44.09L82.74 44.09Q82.16 44.09 81.91 44.06Q81.66 44.03 81.59 43.98Q81.52 43.92 81.48 43.78Q81.4 43.72 81.27 43.72Q81.22 43.72 81.18 43.73Q81.12 43.75 81.06 43.79Q81.05 43.89 80.97 44.42Q80.89 44.96 80.8 45.42Q80.7 45.89 80.56 46.35Q80.58 46.39 80.61 46.42Q80.68 46.5 80.81 46.52Q80.97 46.55 81.09 46.5Q81.11 46.49 81.12 46.48Q81.32 46 81.45 45.74Q81.59 45.48 81.8 45.23Q81.97 45.03 82.19 44.93Q82.24 44.91 82.3 44.89Q82.58 44.79 82.98 44.79L83.91 44.79Q84.17 44.79 84.22 44.86Q84.27 44.93 84.27 45.22ZM68.76 44.5Q67.57 43.86 66.03 43.86Q64.92 43.86 63.96 44.23Q63.92 44.25 63.88 44.26Q62.88 44.67 62.18 45.37Q62.09 45.46 62.01 45.55Q61.43 46.19 61.08 47.04Q61.02 47.19 60.96 47.35Q60.68 48.18 60.68 49.12Q60.68 50.59 61.3 51.73Q61.33 51.78 61.35 51.83Q61.72 52.47 62.24 52.95Q62.67 53.34 63.21 53.62Q63.21 53.62 63.22 53.63Q64.4 54.24 65.89 54.24Q67.5 54.24 68.72 53.61Q69.32 53.31 69.79 52.86Q70.28 52.4 70.62 51.8Q71.3 50.61 71.3 49Q71.3 47.6 70.73 46.5Q70.69 46.41 70.64 46.32Q70.34 45.79 69.92 45.37Q69.43 44.86 68.78 44.51Q68.77 44.5 68.76 44.5ZM141.63 52.52Q141.94 51.94 141.94 51.19Q141.94 50.66 141.77 50.2Q141.35 48.99 139.82 48.17L138.83 47.65Q138.24 47.34 137.85 46.89Q137.51 46.48 137.47 46.04Q137.47 45.99 137.47 45.94Q137.47 45.62 137.59 45.36Q137.69 45.14 137.88 44.95Q137.94 44.89 138.01 44.84Q138.39 44.55 138.99 44.55Q139.17 44.55 139.33 44.58Q139.53 44.63 139.71 44.73Q139.91 44.83 140.08 44.98Q140.2 45.08 140.3 45.2Q140.54 45.49 140.7 45.79Q140.87 46.09 140.98 46.41Q140.98 46.41 140.99 46.42Q141.08 46.52 141.29 46.51Q141.48 46.5 141.54 46.4Q141.56 46.39 141.56 46.36Q141.56 44.98 141.29 44.22Q141.1 44.19 140.78 44.09Q140.01 43.86 139.07 43.86Q137.46 43.86 136.52 44.65Q136.1 45 135.87 45.45Q135.59 46.01 135.59 46.72Q135.59 47.09 135.69 47.43Q136.06 48.74 137.86 49.64Q138.25 49.84 138.56 50.04Q138.88 50.25 139.2 50.54Q139.46 50.77 139.63 51.06Q139.67 51.14 139.71 51.22Q139.78 51.37 139.83 51.52Q139.89 51.77 139.89 52.03Q139.89 52.34 139.79 52.61Q139.68 52.87 139.48 53.1Q139.41 53.16 139.34 53.22Q138.94 53.55 138.28 53.55Q138.22 53.55 138.16 53.54Q137.76 53.52 137.38 53.32Q137.11 53.18 136.89 52.99Q136.74 52.87 136.62 52.73Q136.29 52.37 136.05 51.97Q135.81 51.57 135.7 51.19Q135.67 51.16 135.64 51.13Q135.56 51.06 135.4 51.07Q135.26 51.08 135.18 51.16Q135.15 51.19 135.13 51.23Q135.13 52.01 135.26 52.72Q135.4 53.42 135.61 53.67Q136.59 54.24 138.16 54.24Q139.84 54.24 140.88 53.42Q140.89 53.41 140.9 53.4Q141.37 53.02 141.63 52.52ZM43.48 49.24L46.6 49.24Q47.07 49.24 47.15 49.3Q47.23 49.36 47.23 49.67L47.23 51.83Q47.23 52.57 47.18 52.87Q47.12 53.17 46.98 53.3Q46.83 53.42 46.47 53.47L46.14 53.51Q46.05 53.58 46.05 53.78Q46.05 53.97 46.14 54.04Q47.21 54 48.34 54Q49.4 54 50.52 54.04Q50.6 53.97 50.6 53.78Q50.6 53.58 50.52 53.51L50.16 53.45Q49.92 53.42 49.81 53.37Q49.69 53.32 49.59 53.24Q49.48 53.15 49.45 52.97Q49.41 52.78 49.39 52.53Q49.37 52.28 49.37 51.83L49.37 46.25Q49.37 45.53 49.43 45.22Q49.49 44.91 49.64 44.8Q49.78 44.68 50.16 44.62L50.46 44.58Q50.55 44.51 50.55 44.31Q50.55 44.11 50.46 44.05Q49.42 44.09 48.34 44.09Q47.31 44.09 46.06 44.05Q45.98 44.11 45.98 44.31Q45.98 44.51 46.06 44.58L46.47 44.63Q46.69 44.67 46.81 44.72Q46.88 44.74 46.95 44.78Q46.99 44.81 47.03 44.84Q47.12 44.93 47.16 45.12Q47.2 45.31 47.21 45.55Q47.23 45.8 47.23 46.25L47.23 48Q47.23 48.33 47.15 48.38Q47.07 48.44 46.6 48.44L43.48 48.44Q43.02 48.44 42.93 48.38Q42.85 48.32 42.85 48L42.85 46.25Q42.85 45.53 42.9 45.22Q42.96 44.91 43.1 44.78Q43.24 44.66 43.59 44.62L43.9 44.58Q43.99 44.51 43.99 44.31Q43.99 44.11 43.9 44.05Q42.91 44.09 41.81 44.09Q40.68 44.09 39.58 44.05Q39.49 44.11 39.49 44.31Q39.49 44.51 39.58 44.58L39.94 44.62Q40.31 44.66 40.45 44.79Q40.6 44.91 40.65 45.21Q40.7 45.51 40.7 46.25L40.7 51.83Q40.7 52.57 40.65 52.87Q40.6 53.17 40.45 53.3Q40.31 53.42 39.94 53.47L39.58 53.51Q39.49 53.58 39.49 53.78Q39.49 53.97 39.58 54.04Q40.72 54 41.81 54Q42.8 54 44.09 54.04Q44.18 53.97 44.18 53.78Q44.18 53.58 44.09 53.51L43.62 53.45Q43.26 53.41 43.11 53.29Q42.96 53.17 42.91 52.87Q42.85 52.56 42.85 51.83L42.85 49.67Q42.85 49.36 42.93 49.3Q43.02 49.24 43.48 49.24ZM102.97 48L102.97 45.37Q102.97 44.94 103.03 44.87Q103.1 44.79 103.47 44.79L104.67 44.79Q105.67 44.79 106.13 45.25Q106.43 45.56 106.7 46.44Q106.71 46.45 106.73 46.46Q106.83 46.54 107.01 46.52Q107.18 46.51 107.24 46.42Q107.25 46.4 107.26 46.38Q107.22 45.8 107.14 44.96Q107.07 44.13 107.06 44.05Q106.76 44.09 105.06 44.09L101.88 44.09Q100.77 44.09 99.72 44.05Q99.71 44.05 99.7 44.06Q99.61 44.13 99.59 44.31Q99.58 44.49 99.67 44.56Q99.68 44.57 99.69 44.58L100.06 44.65Q100.25 44.69 100.35 44.72Q100.46 44.74 100.55 44.82Q100.65 44.89 100.69 44.98Q100.73 45.07 100.77 45.25Q100.81 45.43 100.81 45.65Q100.82 45.87 100.82 46.24L100.82 51.83Q100.82 52.2 100.81 52.42Q100.81 52.65 100.77 52.83Q100.73 53.01 100.69 53.1Q100.65 53.19 100.55 53.26Q100.46 53.33 100.35 53.35Q100.25 53.38 100.06 53.41L99.36 53.51Q99.27 53.57 99.27 53.77Q99.27 53.97 99.36 54.04Q101.05 54 101.94 54L103.88 54Q106.15 54 107.35 54.04Q107.52 53.71 107.73 52.95Q107.93 52.19 107.98 51.64Q107.97 51.61 107.95 51.58Q107.89 51.49 107.73 51.47Q107.56 51.45 107.47 51.52Q107.45 51.54 107.43 51.56Q107.22 51.99 107.04 52.28Q106.86 52.57 106.66 52.77Q106.45 52.96 106.29 53.07Q106.12 53.17 105.86 53.23Q105.59 53.28 105.38 53.3Q105.17 53.31 104.78 53.31Q104 53.31 103.69 53.22Q103.41 53.15 103.25 52.97Q103.23 52.94 103.21 52.92Q102.97 52.58 102.97 51.49L102.97 49.7Q102.97 49.37 103.03 49.31Q103.09 49.24 103.39 49.24L104.43 49.24Q105.02 49.24 105.22 49.39Q105.43 49.54 105.54 50.08L105.61 50.46Q105.69 50.55 105.9 50.55Q106.1 50.55 106.16 50.45Q106.17 50.45 106.17 50.44Q106.12 49.6 106.12 48.85Q106.12 48.11 106.17 47.26L106.17 47.26Q106.12 47.16 105.9 47.16Q105.69 47.15 105.61 47.24L105.54 47.62Q105.43 48.15 105.22 48.3Q105.02 48.44 104.43 48.44L103.39 48.44Q103.09 48.44 103.03 48.38Q102.97 48.31 102.97 48ZM120.86 51.5L120.86 46.25Q120.86 45.7 120.88 45.43Q120.9 45.15 121 44.96Q121.09 44.78 121.22 44.73Q121.35 44.68 121.63 44.63L122.02 44.58Q122.1 44.51 122.1 44.31Q122.1 44.11 122.02 44.05Q120.9 44.09 119.8 44.09Q118.71 44.09 117.55 44.05Q117.52 44.06 117.49 44.09Q117.42 44.16 117.41 44.31Q117.4 44.47 117.48 44.55Q117.5 44.56 117.52 44.58L117.95 44.63Q118.31 44.68 118.46 44.8Q118.6 44.91 118.66 45.22Q118.71 45.52 118.71 46.25L118.71 51.83Q118.71 52.56 118.66 52.86Q118.6 53.17 118.46 53.28Q118.32 53.39 117.95 53.44L117.38 53.51Q117.38 53.51 117.38 53.51Q117.29 53.58 117.31 53.78Q117.33 53.97 117.42 54.04Q118.82 54 119.8 54L121.8 54Q124.07 54 125.27 54.04Q125.44 53.72 125.65 52.94Q125.87 52.16 125.92 51.61Q125.91 51.58 125.89 51.56Q125.81 51.46 125.64 51.44Q125.47 51.41 125.38 51.49Q125.36 51.5 125.35 51.52Q125.12 51.96 124.94 52.26Q124.76 52.55 124.56 52.76Q124.35 52.96 124.2 53.07Q124.04 53.17 123.77 53.23Q123.5 53.28 123.29 53.3Q123.08 53.31 122.68 53.31Q121.89 53.31 121.58 53.22Q121.29 53.14 121.13 52.95Q121.12 52.94 121.12 52.93Q120.86 52.62 120.86 51.5ZM68.55 46.86Q68.9 47.91 68.9 49.2Q68.9 50.14 68.74 50.91Q68.59 51.68 68.27 52.28Q68.02 52.75 67.65 53.05Q67.54 53.14 67.42 53.22Q67.37 53.25 67.32 53.27Q66.82 53.55 66.17 53.55Q65.59 53.55 65.11 53.33Q65.01 53.28 64.91 53.22Q64.45 52.95 64.14 52.56Q64.08 52.48 64.02 52.4Q63.68 51.9 63.46 51.24Q63.24 50.58 63.16 49.98Q63.08 49.37 63.08 48.77Q63.08 46.85 63.82 45.7Q64.2 45.11 64.74 44.82Q65.25 44.55 65.92 44.55Q66.33 44.55 66.7 44.68Q67.14 44.83 67.51 45.18Q68.2 45.81 68.55 46.86Z" fill="#14274A" fill-opacity="1.000000" fill-rule="evenodd"/>
	<path id="LUXURY" d="M10.27 26.35L10.27 12.35Q10.27 10.89 10.33 10.14Q10.39 9.4 10.63 8.91Q10.87 8.42 11.23 8.29Q11.58 8.15 12.32 8.03L13.35 7.88Q13.59 7.7 13.59 7.17Q13.59 6.65 13.35 6.47Q10.37 6.59 7.44 6.59Q4.55 6.59 1.44 6.47Q1.36 6.51 1.29 6.57Q1.08 6.77 1.07 7.17Q1.05 7.61 1.26 7.8Q1.31 7.85 1.36 7.88L2.51 8.03Q3.47 8.15 3.86 8.46Q4.25 8.78 4.4 9.59Q4.55 10.4 4.55 12.35L4.55 27.23Q4.55 29.17 4.4 29.98Q4.25 30.79 3.87 31.09Q3.49 31.39 2.51 31.51L0.99 31.71Q0.99 31.71 0.98 31.71Q0.76 31.89 0.81 32.41Q0.85 32.94 1.11 33.11Q4.84 33 7.44 33L12.79 33Q18.82 33 22.03 33.11Q22.48 32.25 23.05 30.18Q23.63 28.11 23.76 26.63Q23.73 26.56 23.68 26.5Q23.46 26.24 23.02 26.18Q22.56 26.11 22.32 26.31Q22.28 26.35 22.24 26.39Q21.64 27.57 21.16 28.36Q20.68 29.15 20.13 29.69Q19.58 30.24 19.16 30.52Q18.75 30.81 18.03 30.95Q17.32 31.1 16.75 31.13Q16.19 31.16 15.11 31.16Q13.02 31.16 12.2 30.93Q11.41 30.72 10.98 30.2Q10.97 30.18 10.95 30.16Q10.27 29.32 10.27 26.35ZM32.3 12.35L32.3 22.35Q32.3 28.93 35.27 31.39Q38.05 33.64 43.18 33.64Q45.64 33.64 47.72 32.89Q49.8 32.14 51.11 30.75Q51.57 30.24 51.94 29.68Q52.79 28.37 53.15 26.74Q53.67 24.4 53.67 21.12L53.67 16.63Q53.67 10.71 54.28 9.32Q54.44 8.92 54.73 8.66Q54.86 8.55 55.02 8.46Q55.53 8.19 56.42 8L57.15 7.84Q57.36 7.58 57.35 7.13Q57.34 6.67 57.15 6.47Q54.86 6.59 52.67 6.59Q50.57 6.59 47.3 6.47Q47.11 6.67 47.1 7.13Q47.09 7.58 47.3 7.84L48.4 8.03Q49.35 8.21 49.91 8.48Q50.2 8.63 50.41 8.85Q50.59 9.05 50.7 9.32Q51.31 10.71 51.31 16.63L51.31 21.47Q51.31 28.34 48.13 30.47Q46.7 31.43 44.63 31.43Q43.36 31.43 42.35 31.12Q41.35 30.81 40.66 30.31Q39.98 29.81 39.48 29.02Q38.98 28.23 38.71 27.44Q38.44 26.65 38.28 25.57Q38.12 24.5 38.08 23.62Q38.03 22.74 38.03 21.59L38.03 12.35Q38.03 11.16 38.08 10.49Q38.12 9.81 38.22 9.31Q38.32 8.82 38.58 8.58Q38.82 8.37 39.09 8.25Q39.12 8.23 39.16 8.22Q39.47 8.09 40.08 8L41.03 7.84Q41.27 7.66 41.27 7.16Q41.27 6.65 41.03 6.47Q38.16 6.59 35.19 6.59Q32.23 6.59 29.35 6.47Q29.3 6.5 29.25 6.55Q29.04 6.74 29.03 7.16Q29.02 7.64 29.25 7.82Q29.26 7.83 29.28 7.84L30.27 8.03Q30.88 8.15 31.18 8.28Q31.48 8.41 31.76 8.63Q32.03 8.85 32.12 9.34Q32.21 9.83 32.25 10.5Q32.3 11.16 32.3 12.35ZM63.99 31.67L63.05 31.8Q63.02 31.83 62.99 31.86Q62.8 32.04 62.86 32.47Q62.93 32.91 63.18 33.08Q63.2 33.1 63.23 33.11Q65 33 67.42 33Q70.26 33 72.89 33.11Q72.95 33.09 73 33.06Q73.23 32.9 73.25 32.45Q73.28 31.94 73.05 31.73Q73.03 31.72 73.01 31.71L71.98 31.59Q70.79 31.48 70.71 31.13Q70.71 31.11 70.71 31.08Q70.71 30.71 71.06 29.99Q72.85 26.57 75.75 22.35Q76.17 22.9 77.76 25.36Q79.34 27.82 79.83 28.68Q80.98 30.61 80.98 31.04Q80.98 31.05 80.98 31.07Q80.93 31.42 79.5 31.59L78.42 31.71Q78.39 31.72 78.37 31.74Q78.15 31.92 78.21 32.43Q78.26 32.98 78.52 33.11Q78.53 33.11 78.54 33.11Q81.78 33 85.26 33Q88.87 33 91.51 33.11Q91.52 33.11 91.53 33.1Q91.78 32.9 91.81 32.41Q91.84 31.9 91.62 31.71L90.37 31.55Q89.16 31.39 88.32 30.8Q87.48 30.2 86.47 28.68Q84.36 25.51 80.06 18.87Q79.5 18 79.5 17.64Q79.5 17.43 80.3 16.28Q83.69 11.65 86.25 9.03Q86.74 8.54 87.26 8.34Q87.78 8.13 88.54 8.03L89.83 7.88Q90.04 7.62 89.99 7.12Q89.95 6.66 89.71 6.5Q89.68 6.49 89.65 6.47Q87.72 6.59 85.02 6.59Q82.27 6.59 80.41 6.47Q80.37 6.49 80.33 6.52Q80.1 6.68 80.07 7.15Q80.04 7.67 80.28 7.87Q80.29 7.87 80.3 7.88L81.58 8.07Q81.96 8.13 82.17 8.26Q82.39 8.39 82.39 8.48Q82.39 8.95 81.94 9.67Q81.39 10.63 80.77 11.57Q80.16 12.51 79.31 13.74Q78.46 14.97 77.97 15.71Q75.76 12.49 74.46 10.2Q73.81 9.09 73.81 8.64Q73.81 8.63 73.81 8.63Q73.84 8.28 75.18 8.03L76.06 7.88Q76.27 7.64 76.24 7.13Q76.22 6.69 75.99 6.53Q75.95 6.49 75.9 6.47Q74.05 6.59 69.83 6.59Q65.51 6.59 63.58 6.47Q63.54 6.5 63.5 6.53Q63.28 6.72 63.27 7.15Q63.27 7.59 63.48 7.83Q63.51 7.85 63.54 7.88L64.22 8Q65.57 8.23 66.33 8.7Q67.09 9.17 67.78 10.16Q68.85 11.71 70.97 14.94Q73.09 18.17 73.5 18.76Q74.14 19.64 74.14 20.03Q74.14 20.42 73.58 21.28Q70.75 25.5 68.62 28.31Q68.09 29.03 67.84 29.34Q67.6 29.66 67.12 30.15Q66.64 30.65 66.25 30.89Q65.86 31.12 65.28 31.34Q64.69 31.57 63.99 31.67ZM100.48 12.35L100.48 22.35Q100.48 28.93 103.44 31.39Q106.22 33.64 111.35 33.64Q113.82 33.64 115.9 32.89Q117.98 32.14 119.28 30.75Q119.74 30.24 120.11 29.68Q120.96 28.37 121.33 26.74Q121.84 24.4 121.84 21.12L121.84 16.63Q121.84 10.71 122.45 9.32Q122.61 8.92 122.9 8.66Q123.03 8.55 123.19 8.46Q123.7 8.19 124.6 8L125.32 7.84Q125.53 7.58 125.52 7.13Q125.52 6.67 125.32 6.47Q123.03 6.59 120.85 6.59Q118.74 6.59 115.48 6.47Q115.28 6.67 115.27 7.13Q115.26 7.58 115.48 7.84L116.57 8.03Q117.53 8.21 118.08 8.48Q118.37 8.63 118.58 8.85Q118.76 9.05 118.87 9.32Q119.48 10.71 119.48 16.63L119.48 21.47Q119.48 28.34 116.3 30.47Q114.87 31.43 112.8 31.43Q111.53 31.43 110.52 31.12Q109.52 30.81 108.84 30.31Q108.15 29.81 107.65 29.02Q107.16 28.23 106.88 27.44Q106.61 26.65 106.45 25.57Q106.3 24.5 106.25 23.62Q106.2 22.74 106.2 21.59L106.2 12.35Q106.2 11.16 106.25 10.49Q106.3 9.81 106.39 9.31Q106.49 8.82 106.76 8.58Q106.99 8.37 107.26 8.25Q107.3 8.23 107.33 8.22Q107.64 8.09 108.25 8L109.21 7.84Q109.44 7.66 109.44 7.16Q109.44 6.65 109.21 6.47Q106.34 6.59 103.37 6.59Q100.4 6.59 97.53 6.47Q97.47 6.5 97.42 6.55Q97.21 6.74 97.2 7.16Q97.19 7.64 97.42 7.82Q97.44 7.83 97.45 7.84L98.44 8.03Q99.05 8.15 99.35 8.28Q99.66 8.41 99.93 8.63Q100.2 8.85 100.29 9.34Q100.38 9.83 100.43 10.5Q100.48 11.16 100.48 12.35ZM136.26 13.07L136.26 27.23Q136.26 28.41 136.21 29.07Q136.16 29.73 136.07 30.22Q135.97 30.71 135.7 30.93Q135.44 31.16 135.14 31.29Q134.84 31.41 134.23 31.51L133.16 31.71Q132.92 31.86 132.92 32.4Q132.92 32.94 133.16 33.11Q136.26 33 139 33Q141.69 33 144.87 33.11Q145.07 32.94 145.07 32.4Q145.07 31.86 144.87 31.71L143.78 31.51Q143.17 31.41 142.87 31.29Q142.57 31.16 142.31 30.93Q142.04 30.71 141.94 30.22Q141.85 29.73 141.8 29.07Q141.75 28.41 141.75 27.23L141.75 22.31Q141.75 21.71 141.97 21.57Q142.2 21.43 143.23 21.43Q144.02 21.43 144.5 21.75Q144.99 22.06 145.34 22.84Q146.89 26.41 148.47 29.03Q149.8 31.2 151.64 32.21Q153.49 33.23 156.22 33.23Q158.57 33.23 159.39 32.88Q159.54 32.7 159.51 32.34Q159.49 32.07 159.35 31.93Q159.3 31.88 159.23 31.84Q159.16 31.84 159.09 31.83Q157.78 31.69 156.55 30.71Q155.21 29.56 153.85 27.32Q152.49 25.08 150.34 20.71Q150.19 20.38 150.23 20.17Q150.23 20.16 150.23 20.15Q150.28 19.96 150.56 19.83Q151.4 19.42 152.02 18.99Q152.65 18.56 153.34 17.85L153.35 17.84Q154.04 17.13 154.42 16.12Q154.8 15.1 154.8 13.83Q154.8 12.15 154.12 10.81Q153.25 9.08 151.26 7.92Q148.86 6.47 143.43 6.47Q139.23 6.47 133.51 6.84Q133.43 6.87 133.38 6.92Q133.15 7.09 133.14 7.54Q133.12 8 133.34 8.17Q133.38 8.21 133.43 8.23L134.5 8.39Q134.95 8.44 135.22 8.52Q135.48 8.6 135.7 8.83Q135.93 9.07 136.02 9.3Q136.1 9.54 136.17 10.14Q136.24 10.75 136.25 11.33Q136.26 11.92 136.26 13.07ZM177.42 27.23L177.42 24.44Q177.42 22.8 177.72 21.79Q178.02 20.79 178.84 19.28L181.36 14.71Q183.57 10.69 184.9 9.03Q185.48 8.29 186.81 8.07L187.85 7.88Q187.85 7.87 187.86 7.87Q188.1 7.67 188.07 7.14Q188.05 6.71 187.83 6.54Q187.77 6.5 187.69 6.47Q185.97 6.59 183.77 6.59Q181.69 6.59 179.29 6.47Q179.27 6.48 179.26 6.49Q179.02 6.65 179.02 7.16Q179.02 7.72 179.25 7.88L180.17 8.03Q181.5 8.24 181.54 8.58Q181.54 8.59 181.54 8.6Q181.54 9.34 179.45 13.23Q179.12 13.87 178.42 15.22Q177.73 16.57 177.16 17.62Q176.6 18.68 176.09 19.56Q175.43 18.21 174.25 15.63L172.38 11.35Q171.32 8.99 171.32 8.56Q171.32 8.41 172.28 8.19L173.65 7.88Q173.65 7.87 173.66 7.87Q173.9 7.63 173.87 7.12Q173.85 6.63 173.61 6.49Q173.59 6.48 173.57 6.47Q171.52 6.59 167.73 6.59Q164.78 6.59 162.09 6.47Q162 6.49 161.94 6.53Q161.72 6.68 161.69 7.1Q161.66 7.61 161.9 7.85Q161.91 7.86 161.93 7.88L163.3 8.11Q164.27 8.27 164.73 8.77Q165.19 9.26 165.85 10.63L170.6 20.48Q171.34 22 171.52 22.83Q171.69 23.66 171.69 25.24L171.69 27.23Q171.69 28.42 171.65 29.09Q171.6 29.75 171.5 30.25Q171.4 30.75 171.14 30.97Q170.92 31.16 170.66 31.27Q170.61 31.29 170.56 31.31Q170.25 31.41 169.64 31.51L168.3 31.71Q168.06 31.88 168.06 32.41Q168.06 32.94 168.3 33.11Q171.83 33 174.57 33Q177.14 33 181.05 33.11Q181.25 32.94 181.25 32.41Q181.25 31.88 181.05 31.71L179.45 31.51Q178.47 31.39 178.09 31.09Q177.71 30.79 177.56 29.98Q177.42 29.17 177.42 27.23ZM141.75 18.15L141.75 10.36Q141.75 8.91 141.99 8.61Q142.24 8.31 143.47 8.31Q144.9 8.31 146 8.92Q146.7 9.3 147.26 9.93Q147.43 10.12 147.58 10.33Q148.7 11.87 148.7 14.23Q148.7 17.14 147.28 18.56Q147.09 18.75 146.87 18.91Q145.83 19.67 144.23 19.67Q142.47 19.67 142.11 19.45Q141.75 19.23 141.75 18.15Z" fill="#14274A" fill-opacity="1.000000" fill-rule="evenodd"/>
</svg>
