<svg width="9.747986" height="18.676270" viewBox="0 0 9.74799 18.6763" fill="none" xmlns="http://www.w3.org/2000/svg" xmlns:xlink="http://www.w3.org/1999/xlink">
	<desc>
			Created with Pixso.
	</desc>
	<defs/>
	<path id="Path 38" d="M6.32 18.67L6.32 10.17L9.22 10.17L9.64 6.85L6.32 6.85L6.32 4.77C6.32 3.84 6.63 3.12 7.98 3.12L9.74 3.12L9.74 0.1C9.33 0.1 8.29 0 7.15 0C6.57 -0.04 5.99 0.05 5.45 0.26C4.91 0.46 4.42 0.79 4.02 1.2C3.61 1.61 3.3 2.11 3.11 2.66C2.92 3.2 2.84 3.78 2.89 4.36L2.89 6.85L0 6.85L0 10.17L2.89 10.17L2.89 18.67L6.32 18.67Z" fill="#FFFFFF" fill-opacity="1.000000" fill-rule="evenodd"/>
</svg>
