<svg width="18.703094" height="18.703125" viewBox="0 0 18.7031 18.7031" fill="none" xmlns="http://www.w3.org/2000/svg" xmlns:xlink="http://www.w3.org/1999/xlink">
	<desc>
			Created with Pixso.
	</desc>
	<defs/>
	<path id="Path 40" d="M9.35 1.67C10.59 1.63 11.84 1.66 13.08 1.77C13.68 1.77 14.28 1.87 14.84 2.09C15.62 2.45 16.25 3.07 16.61 3.85C16.82 4.41 16.92 5.01 16.92 5.62C16.92 6.55 17.02 6.86 17.02 9.35C17.06 10.59 17.03 11.84 16.92 13.08C16.92 13.68 16.82 14.28 16.6 14.84C16.24 15.62 15.62 16.25 14.84 16.61C14.28 16.82 13.68 16.93 13.08 16.92C12.15 16.92 11.83 17.02 9.35 17.02C8.1 17.07 6.86 17.03 5.62 16.92C5.01 16.92 4.42 16.82 3.85 16.6C3.08 16.24 2.45 15.62 2.09 14.85C1.88 14.28 1.77 13.68 1.78 13.08C1.78 12.15 1.68 11.84 1.68 9.35C1.63 8.1 1.66 6.86 1.78 5.62C1.77 5.01 1.88 4.42 2.09 3.85C2.27 3.47 2.52 3.12 2.82 2.82C3.06 2.45 3.43 2.19 3.85 2.09C4.42 1.88 5.01 1.77 5.62 1.78C6.86 1.66 8.1 1.63 9.35 1.68L9.35 1.67ZM9.35 0.02C8.07 -0.03 6.79 0 5.52 0.12C4.73 0.11 3.96 0.26 3.23 0.53C2.6 0.74 2.03 1.1 1.57 1.57C1.1 2.03 0.74 2.6 0.53 3.23C0.21 3.95 0.06 4.73 0.12 5.52C0 6.79 -0.03 8.07 0.02 9.35C-0.03 10.63 0 11.91 0.12 13.19C0.11 13.96 0.25 14.74 0.53 15.47C0.74 16.1 1.09 16.67 1.57 17.13C2.03 17.6 2.6 17.96 3.23 18.16C3.96 18.44 4.73 18.58 5.51 18.58C6.78 18.69 8.06 18.72 9.34 18.68C10.62 18.72 11.91 18.69 13.18 18.58C13.96 18.58 14.73 18.44 15.46 18.16C16.09 17.95 16.66 17.59 17.12 17.12C17.59 16.66 17.95 16.09 18.16 15.46C18.44 14.73 18.58 13.96 18.58 13.18C18.58 12.14 18.68 11.83 18.68 9.34C18.72 8.06 18.69 6.78 18.58 5.51C18.58 4.73 18.44 3.96 18.16 3.23C17.96 2.6 17.6 2.03 17.13 1.57C16.67 1.09 16.1 0.74 15.47 0.53C14.74 0.26 13.97 0.12 13.19 0.12C11.91 0 10.63 -0.03 9.35 0.02ZM9.35 4.58C8.72 4.57 8.09 4.68 7.51 4.92C6.93 5.16 6.4 5.51 5.95 5.95C5.51 6.4 5.16 6.93 4.92 7.51C4.68 8.09 4.57 8.72 4.58 9.35C4.58 10.29 4.86 11.21 5.38 12C5.91 12.78 6.65 13.39 7.52 13.76C8.39 14.12 9.35 14.21 10.28 14.03C11.2 13.84 12.05 13.39 12.72 12.72C13.39 12.05 13.84 11.2 14.03 10.28C14.21 9.35 14.12 8.39 13.76 7.52C13.39 6.65 12.78 5.91 12 5.38C11.21 4.86 10.29 4.58 9.35 4.58ZM9.35 12.46C8.94 12.47 8.53 12.39 8.15 12.24C7.77 12.08 7.42 11.86 7.13 11.57C6.84 11.27 6.61 10.93 6.46 10.55C6.31 10.17 6.23 9.76 6.24 9.35C6.23 8.94 6.31 8.53 6.46 8.15C6.61 7.77 6.84 7.42 7.13 7.13C7.42 6.84 7.77 6.61 8.15 6.46C8.53 6.31 8.94 6.23 9.35 6.24C9.76 6.23 10.17 6.31 10.55 6.46C10.93 6.61 11.27 6.84 11.56 7.13C11.86 7.42 12.08 7.77 12.24 8.15C12.39 8.53 12.47 8.94 12.46 9.35C12.47 9.76 12.39 10.17 12.24 10.55C12.08 10.93 11.86 11.27 11.56 11.57C11.27 11.86 10.93 12.08 10.55 12.24C10.17 12.39 9.76 12.47 9.35 12.46ZM14.33 3.23C14.1 3.23 13.88 3.3 13.69 3.42C13.51 3.55 13.36 3.73 13.27 3.93C13.19 4.14 13.16 4.37 13.21 4.59C13.25 4.81 13.36 5.02 13.52 5.18C13.68 5.34 13.88 5.45 14.1 5.49C14.33 5.53 14.55 5.51 14.76 5.42C14.97 5.34 15.15 5.19 15.28 5C15.4 4.82 15.47 4.6 15.47 4.37C15.46 4.07 15.34 3.78 15.13 3.57C14.92 3.35 14.63 3.23 14.33 3.23Z" fill="#FFFFFF" fill-opacity="1.000000" fill-rule="evenodd"/>
</svg>
