<svg width="118.000000" height="38.000000" viewBox="0 0 118 38" fill="none" xmlns="http://www.w3.org/2000/svg" xmlns:xlink="http://www.w3.org/1999/xlink">
	<desc>
			Created with Pixso.
	</desc>
	<defs/>
	<path id="HOTELS" d="M51.16 31.73L51.16 35.7Q51.16 35.97 51.15 36.12Q51.14 36.27 51.12 36.38Q51.09 36.5 51.04 36.55Q51.02 36.56 51.01 36.57Q50.96 36.6 50.91 36.62Q50.84 36.65 50.7 36.66L50.3 36.71Q50.25 36.74 50.25 36.86Q50.25 36.98 50.3 37.02Q51.24 37 51.83 37Q52.39 37 53.27 37.02Q53.31 36.98 53.31 36.86Q53.31 36.74 53.27 36.71L52.91 36.66Q52.69 36.63 52.6 36.57Q52.52 36.5 52.48 36.32Q52.45 36.13 52.45 35.7L52.45 31.73Q52.45 31.55 52.49 31.51Q52.53 31.47 52.69 31.47L53.23 31.47Q53.4 31.47 53.52 31.5Q53.65 31.53 53.75 31.61Q53.84 31.68 53.9 31.75Q53.96 31.82 54.02 31.96Q54.07 32.1 54.1 32.19Q54.14 32.29 54.18 32.47L54.18 32.47Q54.22 32.52 54.35 32.51Q54.49 32.5 54.52 32.44Q54.5 32.06 54.55 31.59Q54.59 31.12 54.65 30.89Q54.65 30.88 54.63 30.87Q54.59 30.83 54.52 30.83Q54.47 30.83 54.44 30.84Q54.42 30.85 54.4 30.86Q54.37 30.93 54.32 30.97Q54.27 31.01 54.2 31.02Q54.06 31.05 53.59 31.05L50.24 31.05Q49.89 31.05 49.75 31.04Q49.6 31.02 49.55 30.99Q49.51 30.95 49.49 30.86Q49.44 30.83 49.36 30.83Q49.33 30.83 49.3 30.84Q49.27 30.85 49.24 30.87Q49.23 30.93 49.18 31.25Q49.13 31.57 49.08 31.85Q49.02 32.13 48.94 32.41Q48.95 32.43 48.97 32.45Q49.01 32.5 49.08 32.51Q49.18 32.53 49.25 32.5Q49.26 32.49 49.27 32.49Q49.39 32.2 49.47 32.04Q49.55 31.88 49.68 31.74Q49.78 31.62 49.91 31.56Q49.94 31.54 49.98 31.53Q50.15 31.47 50.39 31.47L50.94 31.47Q51.1 31.47 51.13 31.52Q51.16 31.56 51.16 31.73ZM41.86 31.3Q41.14 30.91 40.22 30.91Q39.55 30.91 38.97 31.14Q38.95 31.15 38.92 31.16Q38.32 31.4 37.91 31.82Q37.85 31.87 37.8 31.93Q37.46 32.31 37.25 32.82Q37.21 32.91 37.18 33.01Q37.01 33.51 37.01 34.07Q37.01 34.95 37.38 35.63Q37.39 35.66 37.41 35.69Q37.63 36.08 37.94 36.37Q38.2 36.6 38.52 36.77Q38.53 36.77 38.53 36.77Q39.24 37.14 40.13 37.14Q41.1 37.14 41.83 36.77Q42.19 36.58 42.47 36.31Q42.76 36.04 42.97 35.68Q43.38 34.96 43.38 34Q43.38 33.16 43.04 32.5Q43.01 32.44 42.98 32.39Q42.8 32.07 42.55 31.82Q42.26 31.51 41.86 31.3Q41.86 31.3 41.86 31.3ZM85.58 36.11Q85.76 35.76 85.76 35.31Q85.76 35 85.66 34.72Q85.41 33.99 84.49 33.5L83.9 33.19Q83.54 33 83.31 32.73Q83.1 32.49 83.08 32.22Q83.08 32.19 83.08 32.16Q83.08 31.97 83.15 31.81Q83.21 31.68 83.32 31.57Q83.36 31.53 83.4 31.5Q83.63 31.33 83.99 31.33Q84.1 31.33 84.2 31.35Q84.31 31.37 84.43 31.43Q84.55 31.5 84.65 31.58Q84.72 31.64 84.78 31.72Q84.92 31.89 85.02 32.07Q85.12 32.25 85.18 32.44Q85.19 32.45 85.19 32.45Q85.25 32.51 85.37 32.5Q85.48 32.5 85.52 32.44Q85.53 32.43 85.54 32.42Q85.54 31.59 85.37 31.13Q85.25 31.11 85.07 31.05Q84.6 30.91 84.04 30.91Q83.08 30.91 82.51 31.39Q82.26 31.6 82.12 31.87Q81.95 32.2 81.95 32.63Q81.95 32.85 82.01 33.05Q82.23 33.84 83.31 34.38Q83.55 34.5 83.74 34.62Q83.92 34.75 84.12 34.92Q84.27 35.06 84.37 35.23Q84.4 35.28 84.42 35.33Q84.47 35.42 84.49 35.51Q84.53 35.66 84.53 35.82Q84.53 36 84.47 36.16Q84.41 36.32 84.28 36.46Q84.25 36.5 84.2 36.53Q83.96 36.73 83.56 36.73Q83.53 36.73 83.49 36.72Q83.26 36.71 83.03 36.59Q82.87 36.51 82.73 36.39Q82.64 36.32 82.57 36.24Q82.37 36.02 82.23 35.78Q82.09 35.54 82.02 35.31Q82 35.29 81.98 35.28Q81.93 35.24 81.84 35.24Q81.75 35.25 81.7 35.3Q81.69 35.31 81.67 35.34Q81.67 35.8 81.75 36.23Q81.84 36.65 81.96 36.8Q82.55 37.14 83.49 37.14Q84.5 37.14 85.12 36.65Q85.13 36.64 85.14 36.64Q85.42 36.41 85.58 36.11ZM26.68 34.14L28.56 34.14Q28.84 34.14 28.89 34.18Q28.93 34.21 28.93 34.4L28.93 35.7Q28.93 36.14 28.9 36.32Q28.87 36.5 28.79 36.58Q28.7 36.65 28.48 36.68L28.28 36.71Q28.23 36.74 28.23 36.86Q28.23 36.98 28.28 37.02Q28.93 37 29.6 37Q30.24 37 30.91 37.02Q30.96 36.98 30.96 36.86Q30.96 36.74 30.91 36.71L30.69 36.67Q30.55 36.65 30.48 36.62Q30.41 36.59 30.35 36.54Q30.29 36.49 30.27 36.38Q30.24 36.27 30.23 36.12Q30.22 35.97 30.22 35.7L30.22 32.35Q30.22 31.91 30.26 31.73Q30.29 31.55 30.38 31.48Q30.47 31.41 30.69 31.37L30.87 31.34Q30.93 31.3 30.93 31.19Q30.93 31.07 30.87 31.03Q30.25 31.05 29.6 31.05Q28.98 31.05 28.24 31.03Q28.18 31.07 28.18 31.19Q28.18 31.3 28.24 31.34L28.48 31.38Q28.61 31.4 28.69 31.43Q28.73 31.44 28.77 31.47Q28.79 31.48 28.82 31.5Q28.87 31.55 28.89 31.67Q28.92 31.78 28.93 31.93Q28.93 32.08 28.93 32.35L28.93 33.4Q28.93 33.59 28.89 33.63Q28.84 33.66 28.56 33.66L26.68 33.66Q26.41 33.66 26.36 33.63Q26.31 33.59 26.31 33.4L26.31 32.35Q26.31 31.91 26.34 31.73Q26.37 31.54 26.46 31.47Q26.54 31.4 26.75 31.37L26.94 31.34Q26.99 31.3 26.99 31.19Q26.99 31.07 26.94 31.03Q26.35 31.05 25.69 31.05Q25.01 31.05 24.35 31.03Q24.29 31.07 24.29 31.19Q24.29 31.3 24.35 31.34L24.56 31.37Q24.78 31.4 24.87 31.47Q24.96 31.55 24.99 31.73Q25.02 31.91 25.02 32.35L25.02 35.7Q25.02 36.14 24.99 36.32Q24.96 36.5 24.87 36.58Q24.78 36.65 24.56 36.68L24.35 36.71Q24.29 36.74 24.29 36.86Q24.29 36.98 24.35 37.02Q25.03 37 25.69 37Q26.28 37 27.05 37.02Q27.11 36.98 27.11 36.86Q27.11 36.74 27.05 36.71L26.77 36.67Q26.55 36.64 26.46 36.57Q26.38 36.5 26.34 36.32Q26.31 36.13 26.31 35.7L26.31 34.4Q26.31 34.21 26.36 34.18Q26.41 34.14 26.68 34.14ZM62.38 33.4L62.38 31.82Q62.38 31.56 62.42 31.52Q62.46 31.47 62.68 31.47L63.4 31.47Q64 31.47 64.28 31.75Q64.45 31.94 64.62 32.46Q64.63 32.47 64.63 32.47Q64.7 32.52 64.81 32.51Q64.91 32.5 64.94 32.45Q64.95 32.44 64.95 32.42Q64.93 32.08 64.88 31.58Q64.84 31.08 64.84 31.03Q64.66 31.05 63.63 31.05L61.72 31.05Q61.06 31.05 60.43 31.03Q60.42 31.03 60.42 31.03Q60.36 31.08 60.35 31.19Q60.35 31.29 60.4 31.34Q60.4 31.34 60.41 31.34L60.63 31.39Q60.75 31.41 60.81 31.43Q60.87 31.44 60.93 31.49Q60.99 31.53 61.01 31.59Q61.04 31.64 61.06 31.75Q61.08 31.86 61.09 31.99Q61.09 32.12 61.09 32.34L61.09 35.7Q61.09 35.92 61.09 36.05Q61.08 36.19 61.06 36.3Q61.04 36.41 61.01 36.46Q60.99 36.51 60.93 36.55Q60.87 36.6 60.81 36.61Q60.75 36.63 60.63 36.64L60.21 36.71Q60.16 36.74 60.16 36.86Q60.16 36.98 60.21 37.02Q61.23 37 61.76 37L62.93 37Q64.29 37 65.01 37.02Q65.11 36.82 65.24 36.37Q65.36 35.91 65.38 35.58Q65.38 35.56 65.37 35.55Q65.33 35.49 65.23 35.48Q65.14 35.47 65.08 35.51Q65.07 35.52 65.05 35.54Q64.93 35.79 64.82 35.97Q64.72 36.14 64.59 36.26Q64.47 36.38 64.37 36.44Q64.27 36.5 64.11 36.54Q63.95 36.57 63.83 36.58Q63.7 36.58 63.47 36.58Q63 36.58 62.81 36.53Q62.64 36.49 62.55 36.38Q62.54 36.36 62.52 36.35Q62.38 36.15 62.38 35.49L62.38 34.42Q62.38 34.22 62.41 34.18Q62.45 34.14 62.63 34.14L63.25 34.14Q63.61 34.14 63.73 34.23Q63.86 34.32 63.92 34.64L63.97 34.87Q64.01 34.93 64.14 34.93Q64.26 34.93 64.3 34.87Q64.3 34.87 64.3 34.86Q64.27 34.36 64.27 33.91Q64.27 33.46 64.3 32.95L64.3 32.95Q64.27 32.89 64.14 32.89Q64.01 32.89 63.97 32.94L63.92 33.17Q63.86 33.49 63.73 33.58Q63.61 33.66 63.25 33.66L62.63 33.66Q62.45 33.66 62.42 33.62Q62.38 33.58 62.38 33.4ZM73.11 35.5L73.11 32.35Q73.11 32.02 73.13 31.85Q73.14 31.69 73.19 31.58Q73.25 31.47 73.33 31.44Q73.41 31.41 73.58 31.38L73.81 31.34Q73.86 31.3 73.86 31.19Q73.86 31.07 73.81 31.03Q73.14 31.05 72.48 31.05Q71.83 31.05 71.13 31.03Q71.11 31.04 71.09 31.05Q71.05 31.09 71.04 31.19Q71.04 31.28 71.09 31.33Q71.1 31.34 71.11 31.34L71.37 31.38Q71.58 31.41 71.67 31.48Q71.76 31.55 71.79 31.73Q71.83 31.91 71.83 32.35L71.83 35.7Q71.83 36.13 71.79 36.32Q71.76 36.5 71.67 36.57Q71.59 36.63 71.37 36.66L71.03 36.71Q71.03 36.71 71.02 36.71Q70.97 36.75 70.98 36.86Q71 36.98 71.05 37.02Q71.89 37 72.48 37L73.68 37Q75.04 37 75.76 37.02Q75.86 36.83 75.99 36.36Q76.12 35.9 76.15 35.56Q76.14 35.55 76.13 35.53Q76.08 35.48 75.98 35.46Q75.88 35.45 75.82 35.49Q75.82 35.5 75.81 35.51Q75.67 35.77 75.56 35.95Q75.46 36.13 75.33 36.25Q75.21 36.38 75.12 36.44Q75.02 36.5 74.86 36.54Q74.7 36.57 74.57 36.58Q74.45 36.58 74.2 36.58Q73.73 36.58 73.55 36.53Q73.37 36.48 73.27 36.37Q73.27 36.36 73.27 36.36Q73.11 36.17 73.11 35.5ZM41.73 32.71Q41.94 33.34 41.94 34.12Q41.94 34.68 41.84 35.14Q41.75 35.61 41.56 35.97Q41.41 36.25 41.19 36.43Q41.12 36.48 41.05 36.53Q41.02 36.55 40.99 36.56Q40.69 36.73 40.3 36.73Q39.95 36.73 39.67 36.6Q39.6 36.57 39.54 36.53Q39.27 36.37 39.08 36.14Q39.04 36.09 39.01 36.04Q38.81 35.74 38.68 35.34Q38.54 34.95 38.5 34.58Q38.45 34.22 38.45 33.86Q38.45 32.71 38.89 32.02Q39.12 31.66 39.44 31.49Q39.75 31.33 40.15 31.33Q40.4 31.33 40.62 31.4Q40.88 31.5 41.1 31.7Q41.52 32.08 41.73 32.71Z" fill="#FFFFFF" fill-opacity="1.000000" fill-rule="evenodd"/>
	<path id="LUXURY" d="M6.42 16.84L6.42 8.09Q6.42 7.18 6.45 6.71Q6.49 6.25 6.64 5.94Q6.79 5.64 7.01 5.55Q7.23 5.47 7.7 5.39L8.34 5.3Q8.49 5.19 8.49 4.86Q8.49 4.53 8.34 4.42Q6.48 4.49 4.65 4.49Q2.84 4.49 0.9 4.42Q0.85 4.44 0.81 4.48Q0.68 4.61 0.67 4.86Q0.66 5.13 0.79 5.25Q0.81 5.28 0.85 5.3L1.57 5.39Q2.17 5.47 2.41 5.66Q2.66 5.86 2.75 6.36Q2.84 6.87 2.84 8.09L2.84 17.39Q2.84 18.6 2.75 19.11Q2.66 19.62 2.42 19.8Q2.18 19.99 1.57 20.07L0.62 20.19Q0.61 20.19 0.61 20.19Q0.47 20.31 0.5 20.63Q0.53 20.96 0.69 21.07Q3.02 21 4.65 21L7.99 21Q11.76 21 13.76 21.07Q14.05 20.53 14.41 19.24Q14.77 17.94 14.85 17.02Q14.83 16.97 14.8 16.93Q14.66 16.77 14.39 16.73Q14.1 16.69 13.95 16.82Q13.92 16.84 13.9 16.87Q13.52 17.6 13.22 18.1Q12.92 18.59 12.58 18.93Q12.24 19.27 11.98 19.45Q11.71 19.63 11.27 19.72Q10.82 19.81 10.47 19.83Q10.11 19.85 9.44 19.85Q8.14 19.85 7.62 19.71Q7.13 19.57 6.86 19.25Q6.85 19.24 6.84 19.23Q6.42 18.7 6.42 16.84ZM20.19 8.09L20.19 14.34Q20.19 18.46 22.04 19.99Q23.78 21.4 26.99 21.4Q28.53 21.4 29.83 20.93Q31.13 20.46 31.94 19.59Q32.23 19.28 32.46 18.92Q32.99 18.1 33.22 17.08Q33.54 15.62 33.54 13.57L33.54 10.77Q33.54 7.07 33.92 6.2Q34.02 5.95 34.2 5.79Q34.29 5.72 34.38 5.66Q34.7 5.49 35.26 5.37L35.72 5.27Q35.85 5.11 35.84 4.83Q35.84 4.54 35.72 4.42Q34.29 4.49 32.92 4.49Q31.6 4.49 29.56 4.42Q29.44 4.54 29.43 4.83Q29.43 5.11 29.56 5.27L30.25 5.39Q30.84 5.5 31.19 5.68Q31.37 5.76 31.5 5.9Q31.62 6.03 31.69 6.2Q32.07 7.07 32.07 10.77L32.07 13.79Q32.07 18.09 30.08 19.42Q29.19 20.02 27.89 20.02Q27.1 20.02 26.47 19.82Q25.84 19.63 25.41 19.32Q24.99 19.01 24.67 18.51Q24.36 18.02 24.19 17.52Q24.02 17.03 23.92 16.36Q23.83 15.68 23.8 15.14Q23.76 14.59 23.76 13.87L23.76 8.09Q23.76 7.35 23.8 6.93Q23.83 6.51 23.89 6.19Q23.95 5.88 24.11 5.74Q24.26 5.61 24.43 5.53Q24.45 5.52 24.47 5.51Q24.67 5.43 25.05 5.37L25.64 5.27Q25.79 5.16 25.79 4.85Q25.79 4.53 25.64 4.42Q23.85 4.49 21.99 4.49Q20.14 4.49 18.34 4.42Q18.31 4.44 18.28 4.46Q18.15 4.58 18.14 4.85Q18.14 5.15 18.28 5.26Q18.29 5.27 18.3 5.27L18.92 5.39Q19.3 5.47 19.49 5.55Q19.68 5.63 19.85 5.77Q20.02 5.91 20.07 6.21Q20.13 6.52 20.16 6.93Q20.19 7.35 20.19 8.09ZM39.99 20.16L39.4 20.25Q39.38 20.27 39.37 20.28Q39.25 20.4 39.29 20.67Q39.33 20.94 39.48 21.05Q39.5 21.06 39.51 21.07Q40.62 21 42.14 21Q43.91 21 45.56 21.07Q45.59 21.05 45.63 21.03Q45.77 20.93 45.78 20.65Q45.8 20.33 45.65 20.21Q45.64 20.2 45.63 20.19L44.98 20.12Q44.24 20.05 44.19 19.83Q44.19 19.81 44.19 19.8Q44.19 19.57 44.41 19.12Q45.53 16.98 47.34 14.34Q47.61 14.68 48.6 16.22Q49.58 17.76 49.89 18.3Q50.61 19.51 50.61 19.77Q50.61 19.78 50.61 19.79Q50.58 20.01 49.68 20.12L49.01 20.19Q48.99 20.2 48.98 20.21Q48.84 20.32 48.88 20.64Q48.91 20.99 49.08 21.06Q49.08 21.07 49.08 21.07Q51.11 21 53.28 21Q55.54 21 57.19 21.07Q57.2 21.06 57.2 21.06Q57.36 20.93 57.38 20.63Q57.4 20.31 57.26 20.19L56.48 20.09Q55.73 19.99 55.2 19.62Q54.68 19.25 54.04 18.3Q52.72 16.32 50.04 12.17Q49.68 11.62 49.68 11.4Q49.68 11.27 50.18 10.55Q52.31 7.65 53.91 6.02Q54.21 5.71 54.53 5.58Q54.86 5.46 55.33 5.39L56.14 5.3Q56.27 5.14 56.24 4.82Q56.22 4.54 56.07 4.44Q56.05 4.43 56.03 4.42Q54.82 4.49 53.14 4.49Q51.42 4.49 50.26 4.42Q50.23 4.43 50.2 4.45Q50.06 4.55 50.04 4.84Q50.02 5.17 50.17 5.29Q50.18 5.29 50.18 5.3L50.99 5.42Q51.22 5.46 51.35 5.53Q51.49 5.61 51.49 5.68Q51.49 5.97 51.21 6.42Q50.87 7.02 50.48 7.6Q50.1 8.19 49.57 8.96Q49.04 9.73 48.73 10.19Q47.35 8.18 46.53 6.75Q46.13 6.05 46.13 5.77Q46.13 5.77 46.13 5.76Q46.15 5.55 46.98 5.39L47.53 5.3Q47.67 5.15 47.65 4.83Q47.63 4.56 47.5 4.45Q47.47 4.43 47.44 4.42Q46.28 4.49 43.64 4.49Q40.94 4.49 39.73 4.42Q39.71 4.43 39.68 4.45Q39.55 4.57 39.54 4.84Q39.54 5.12 39.68 5.26Q39.69 5.28 39.71 5.3L40.14 5.37Q40.98 5.52 41.46 5.81Q41.93 6.1 42.36 6.72Q43.03 7.69 44.35 9.71Q45.68 11.73 45.93 12.1Q46.34 12.65 46.34 12.89Q46.34 13.13 45.98 13.67Q44.21 16.31 42.88 18.07Q42.55 18.52 42.4 18.71Q42.25 18.91 41.95 19.22Q41.65 19.53 41.41 19.68Q41.16 19.82 40.8 19.96Q40.43 20.1 39.99 20.16ZM62.8 8.09L62.8 14.34Q62.8 18.46 64.65 19.99Q66.38 21.4 69.59 21.4Q71.13 21.4 72.43 20.93Q73.73 20.46 74.55 19.59Q74.84 19.28 75.07 18.92Q75.6 18.1 75.83 17.08Q76.15 15.62 76.15 13.57L76.15 10.77Q76.15 7.07 76.53 6.2Q76.63 5.95 76.81 5.79Q76.89 5.72 76.99 5.66Q77.31 5.49 77.87 5.37L78.32 5.27Q78.46 5.11 78.45 4.83Q78.44 4.54 78.32 4.42Q76.89 4.49 75.53 4.49Q74.21 4.49 72.17 4.42Q72.05 4.54 72.04 4.83Q72.04 5.11 72.17 5.27L72.85 5.39Q73.45 5.5 73.8 5.68Q73.98 5.76 74.11 5.9Q74.22 6.03 74.29 6.2Q74.67 7.07 74.67 10.77L74.67 13.79Q74.67 18.09 72.69 19.42Q71.79 20.02 70.5 20.02Q69.7 20.02 69.08 19.82Q68.45 19.63 68.02 19.32Q67.59 19.01 67.28 18.51Q66.97 18.02 66.8 17.52Q66.63 17.03 66.53 16.36Q66.43 15.68 66.4 15.14Q66.37 14.59 66.37 13.87L66.37 8.09Q66.37 7.35 66.4 6.93Q66.43 6.51 66.49 6.19Q66.56 5.88 66.72 5.74Q66.87 5.61 67.03 5.53Q67.06 5.52 67.08 5.51Q67.28 5.43 67.65 5.37L68.25 5.27Q68.4 5.16 68.4 4.85Q68.4 4.53 68.25 4.42Q66.46 4.49 64.6 4.49Q62.75 4.49 60.95 4.42Q60.92 4.44 60.89 4.46Q60.76 4.58 60.75 4.85Q60.74 5.15 60.89 5.26Q60.9 5.27 60.9 5.27L61.53 5.39Q61.9 5.47 62.09 5.55Q62.28 5.63 62.45 5.77Q62.62 5.91 62.68 6.21Q62.73 6.52 62.76 6.93Q62.8 7.35 62.8 8.09ZM85.16 8.54L85.16 17.39Q85.16 18.13 85.13 18.54Q85.1 18.96 85.04 19.26Q84.98 19.57 84.81 19.71Q84.65 19.85 84.46 19.93Q84.27 20.01 83.89 20.07L83.22 20.19Q83.07 20.29 83.07 20.62Q83.07 20.96 83.22 21.07Q85.16 21 86.87 21Q88.55 21 90.54 21.07Q90.67 20.96 90.67 20.62Q90.67 20.29 90.54 20.19L89.86 20.07Q89.48 20.01 89.29 19.93Q89.1 19.85 88.94 19.71Q88.77 19.57 88.71 19.26Q88.65 18.96 88.62 18.54Q88.59 18.13 88.59 17.39L88.59 14.32Q88.59 13.94 88.73 13.85Q88.87 13.77 89.52 13.77Q90.01 13.77 90.31 13.96Q90.62 14.16 90.84 14.65Q91.8 16.88 92.79 18.52Q93.62 19.87 94.77 20.51Q95.93 21.14 97.64 21.14Q99.1 21.14 99.61 20.92Q99.71 20.81 99.69 20.59Q99.68 20.42 99.59 20.33Q99.56 20.3 99.52 20.27Q99.47 20.27 99.43 20.27Q98.61 20.18 97.84 19.57Q97 18.85 96.15 17.45Q95.31 16.05 93.96 13.32Q93.86 13.11 93.89 12.98Q93.89 12.97 93.89 12.97Q93.92 12.85 94.1 12.77Q94.62 12.51 95.01 12.24Q95.4 11.97 95.84 11.53L95.84 11.52Q96.27 11.08 96.51 10.45Q96.75 9.81 96.75 9.02Q96.75 7.97 96.32 7.13Q95.78 6.05 94.54 5.32Q93.03 4.42 89.64 4.42Q87.02 4.42 83.44 4.65Q83.39 4.67 83.36 4.7Q83.22 4.81 83.21 5.08Q83.2 5.37 83.33 5.48Q83.36 5.5 83.39 5.52L84.06 5.61Q84.34 5.65 84.51 5.7Q84.67 5.75 84.81 5.89Q84.95 6.04 85.01 6.19Q85.06 6.33 85.11 6.71Q85.15 7.09 85.15 7.46Q85.16 7.82 85.16 8.54ZM110.88 17.39L110.88 15.65Q110.88 14.62 111.07 13.99Q111.26 13.37 111.78 12.43L113.35 9.57Q114.73 7.05 115.56 6.02Q115.93 5.55 116.76 5.42L117.4 5.3Q117.41 5.29 117.41 5.29Q117.56 5.17 117.54 4.83Q117.53 4.57 117.39 4.46Q117.35 4.43 117.31 4.42Q116.23 4.49 114.85 4.49Q113.56 4.49 112.06 4.42Q112.04 4.42 112.03 4.43Q111.89 4.53 111.89 4.85Q111.89 5.2 112.03 5.3L112.61 5.39Q113.44 5.53 113.46 5.74Q113.46 5.74 113.46 5.75Q113.46 6.21 112.15 8.64Q111.95 9.04 111.51 9.89Q111.08 10.73 110.73 11.39Q110.37 12.05 110.05 12.6Q109.64 11.75 108.91 10.14L107.73 7.47Q107.08 5.99 107.08 5.72Q107.08 5.63 107.67 5.49L108.53 5.3Q108.53 5.29 108.53 5.29Q108.69 5.14 108.67 4.82Q108.65 4.52 108.51 4.43Q108.49 4.42 108.48 4.42Q107.2 4.49 104.83 4.49Q102.99 4.49 101.3 4.42Q101.25 4.43 101.21 4.46Q101.08 4.55 101.06 4.81Q101.03 5.13 101.18 5.28Q101.19 5.29 101.2 5.3L102.06 5.44Q102.67 5.54 102.96 5.85Q103.24 6.16 103.66 7.02L106.62 13.17Q107.09 14.12 107.2 14.64Q107.31 15.16 107.31 16.15L107.31 17.39Q107.31 18.14 107.28 18.55Q107.25 18.97 107.19 19.28Q107.12 19.59 106.96 19.73Q106.82 19.85 106.66 19.91Q106.63 19.93 106.6 19.94Q106.4 20.01 106.03 20.07L105.18 20.19Q105.04 20.3 105.04 20.63Q105.04 20.96 105.18 21.07Q107.39 21 109.1 21Q110.71 21 113.15 21.07Q113.28 20.96 113.28 20.63Q113.28 20.3 113.15 20.19L112.15 20.07Q111.54 19.99 111.31 19.8Q111.07 19.62 110.98 19.11Q110.88 18.6 110.88 17.39ZM88.59 11.72L88.59 6.85Q88.59 5.94 88.74 5.75Q88.9 5.57 89.67 5.57Q90.56 5.57 91.25 5.95Q91.68 6.19 92.03 6.58Q92.14 6.7 92.23 6.83Q92.94 7.79 92.94 9.26Q92.94 11.08 92.05 11.97Q91.93 12.09 91.79 12.19Q91.14 12.67 90.14 12.67Q89.04 12.67 88.82 12.53Q88.59 12.39 88.59 11.72Z" fill="#FFFFFF" fill-opacity="1.000000" fill-rule="evenodd"/>
</svg>
