<svg width="27.999992" height="25.666656" viewBox="0 0 28 25.6667" fill="none" xmlns="http://www.w3.org/2000/svg" xmlns:xlink="http://www.w3.org/1999/xlink">
	<desc>
			Created with Pixso.
	</desc>
	<defs/>
	<path id="Vector" d="M12.83 0L15.16 0L15.16 2.33L12.83 2.33L12.83 0Z" fill="#FFFFFF" fill-opacity="1.000000" fill-rule="nonzero"/>
	<path id="Vector" d="M19.83 0L22.16 0L22.16 2.33L19.83 2.33L19.83 0Z" fill="#FFFFFF" fill-opacity="1.000000" fill-rule="nonzero"/>
	<path id="Vector" d="M5.83 0L8.16 0L8.16 2.33L5.83 2.33L5.83 0Z" fill="#FFFFFF" fill-opacity="1.000000" fill-rule="nonzero"/>
	<path id="Vector" d="M26.83 2.33L22.16 2.33L22.16 5.83L19.83 5.83L19.83 2.33L15.16 2.33L15.16 5.83L12.83 5.83L12.83 2.33L8.16 2.33L8.16 5.83L5.83 5.83L5.83 2.33L1.16 2.33C0.85 2.33 0.56 2.45 0.34 2.67C0.12 2.89 0 3.19 0 3.49L0 24.5C0 24.8 0.12 25.1 0.34 25.32C0.56 25.54 0.85 25.66 1.16 25.66L26.83 25.66C27.14 25.66 27.43 25.54 27.65 25.32C27.87 25.1 28 24.8 28 24.5L28 3.49C28 3.19 27.87 2.89 27.65 2.67C27.43 2.45 27.14 2.33 26.83 2.33ZM21.48 17.28L19.83 16.1L19.83 21C19.83 21.3 19.71 21.6 19.49 21.82C19.27 22.04 18.97 22.16 18.66 22.16L15.75 22.16L15.75 17.5C15.75 17.19 15.62 16.89 15.4 16.67C15.18 16.45 14.89 16.33 14.58 16.33L13.41 16.33C13.1 16.33 12.81 16.45 12.59 16.67C12.37 16.89 12.25 17.19 12.25 17.5L12.25 22.16L9.33 22.16C9.02 22.16 8.72 22.04 8.5 21.82C8.28 21.6 8.16 21.3 8.16 21L8.16 16.1L6.51 17.28L5.15 15.38L13.32 9.55C13.52 9.41 13.75 9.33 14 9.33C14.24 9.33 14.47 9.41 14.67 9.55L22.84 15.38L21.48 17.28Z" fill="#FFFFFF" fill-opacity="1.000000" fill-rule="nonzero"/>
</svg>
