<svg width="39.000000" height="39.000000" viewBox="0 0 39 39" fill="none" xmlns="http://www.w3.org/2000/svg" xmlns:xlink="http://www.w3.org/1999/xlink">
	<desc>
			Created with Pixso.
	</desc>
	<defs>
		<clipPath id="clip1142_459">
			<rect id="fluent:dark-theme-24-filled" rx="0.000000" width="38.000000" height="38.000000" transform="translate(0.500000 0.500000)" fill="white" fill-opacity="0"/>
		</clipPath>
	</defs>
	<rect id="fluent:dark-theme-24-filled" rx="0.000000" width="38.000000" height="38.000000" transform="translate(0.500000 0.500000)" fill="#FFFFFF" fill-opacity="0"/>
	<g clip-path="url(#clip1142_459)">
		<path id="Vector" d="M19.5 35.75C28.47 35.75 35.75 28.47 35.75 19.5C35.75 10.52 28.47 3.25 19.5 3.25C10.52 3.25 3.25 10.52 3.25 19.5C3.25 28.47 10.52 35.75 19.5 35.75ZM19.5 32.5L19.5 6.5C22.94 6.5 26.25 7.87 28.69 10.3C31.13 12.74 32.5 16.05 32.5 19.5C32.5 22.94 31.13 26.25 28.69 28.69C26.25 31.12 22.94 32.5 19.5 32.5Z" fill="#FFFFFF" fill-opacity="1.000000" fill-rule="nonzero"/>
	</g>
</svg>
