<svg width="18.669983" height="15.149414" viewBox="0 0 18.67 15.1494" fill="none" xmlns="http://www.w3.org/2000/svg" xmlns:xlink="http://www.w3.org/1999/xlink">
	<desc>
			Created with Pixso.
	</desc>
	<defs/>
	<path id="Path 39" d="M5.91 15.14C7.34 15.15 8.76 14.88 10.09 14.33C11.42 13.79 12.62 12.99 13.64 11.98C14.65 10.96 15.45 9.76 16 8.43C16.54 7.1 16.81 5.68 16.8 4.25L16.8 3.73C17.52 3.18 18.15 2.51 18.67 1.76C17.97 2.06 17.24 2.27 16.49 2.38C17.26 1.9 17.84 1.16 18.15 0.31C17.4 0.72 16.59 1.04 15.76 1.24C15.41 0.84 14.98 0.53 14.5 0.31C14.01 0.1 13.49 -0.01 12.96 0C11.95 0.01 10.98 0.42 10.27 1.14C9.55 1.85 9.14 2.82 9.12 3.83C9.1 4.11 9.13 4.4 9.22 4.66C7.7 4.59 6.21 4.19 4.85 3.49C3.49 2.79 2.29 1.81 1.34 0.62C1 1.22 0.82 1.9 0.82 2.59C0.84 3.21 0.99 3.83 1.28 4.39C1.57 4.94 1.98 5.43 2.48 5.8C1.86 5.79 1.25 5.61 0.72 5.28C0.72 6.17 1.03 7.03 1.6 7.71C2.17 8.4 2.96 8.86 3.83 9.02C3.49 9.11 3.14 9.14 2.79 9.12C2.55 9.13 2.3 9.1 2.07 9.02C2.32 9.79 2.81 10.46 3.46 10.94C4.11 11.43 4.89 11.7 5.7 11.72C4.33 12.78 2.66 13.37 0.93 13.38C0.61 13.39 0.3 13.36 0 13.28C1.71 14.52 3.79 15.18 5.91 15.14L5.91 15.14Z" fill="#FFFFFF" fill-opacity="1.000000" fill-rule="evenodd"/>
</svg>
