<svg width="800" height="800" viewBox="0 0 800 800" fill="none" xmlns="http://www.w3.org/2000/svg">
<path d="M400 775C607.107 775 775 607.107 775 400C775 192.893 607.107 25 400 25C192.893 25 25 192.893 25 400C25 607.107 192.893 775 400 775Z" fill="#A4C0F4"/>
<path d="M400 366C457.437 366 504 319.437 504 262C504 204.563 457.437 158 400 158C342.563 158 296 204.563 296 262C296 319.437 342.563 366 400 366Z" fill="#F1A73E"/>
<path d="M608 539C608 481.561 561.439 435 504 435H296C238.563 435 192 481.561 192 539V643H608V539Z" fill="#F1A73E"/>
</svg>
